<mxfile host="app.diagrams.net" agent="Mozilla/5.0 (Windows NT 10.0; Win64; x64) AppleWebKit/537.36 (KHTML, like Gecko) Chrome/135.0.0.0 Safari/537.36" version="27.0.3">
  <diagram name="Page-1" id="lGEV1hWv-OFLLE2CirME">
    <mxGraphModel dx="1157" dy="733" grid="1" gridSize="10" guides="1" tooltips="1" connect="1" arrows="1" fold="1" page="1" pageScale="1" pageWidth="850" pageHeight="1100" math="0" shadow="0">
      <root>
        <mxCell id="0" />
        <mxCell id="1" parent="0" />
        <mxCell id="odD_A38JLa6p7S2N9CNn-136" value="" style="endArrow=classic;html=1;rounded=0;exitX=0.5;exitY=1;exitDx=0;exitDy=0;entryX=0.5;entryY=0;entryDx=0;entryDy=0;" edge="1" parent="1" source="odD_A38JLa6p7S2N9CNn-135" target="odD_A38JLa6p7S2N9CNn-80">
          <mxGeometry width="50" height="50" relative="1" as="geometry">
            <mxPoint x="825" y="810" as="sourcePoint" />
            <mxPoint x="875" y="760" as="targetPoint" />
          </mxGeometry>
        </mxCell>
        <mxCell id="odD_A38JLa6p7S2N9CNn-36" value="" style="endArrow=none;html=1;rounded=0;exitX=0;exitY=0.5;exitDx=0;exitDy=0;entryX=0;entryY=0.5;entryDx=0;entryDy=0;" edge="1" parent="1" source="odD_A38JLa6p7S2N9CNn-30" target="odD_A38JLa6p7S2N9CNn-23">
          <mxGeometry width="50" height="50" relative="1" as="geometry">
            <mxPoint x="335" y="555" as="sourcePoint" />
            <mxPoint x="461.98" y="637.02" as="targetPoint" />
            <Array as="points" />
          </mxGeometry>
        </mxCell>
        <mxCell id="odD_A38JLa6p7S2N9CNn-35" value="" style="endArrow=none;html=1;rounded=0;exitX=0.7;exitY=1.025;exitDx=0;exitDy=0;entryX=0;entryY=0.5;entryDx=0;entryDy=0;exitPerimeter=0;" edge="1" parent="1" source="odD_A38JLa6p7S2N9CNn-28" target="odD_A38JLa6p7S2N9CNn-23">
          <mxGeometry width="50" height="50" relative="1" as="geometry">
            <mxPoint x="398.02" y="382.98" as="sourcePoint" />
            <mxPoint x="525" y="465" as="targetPoint" />
            <Array as="points" />
          </mxGeometry>
        </mxCell>
        <mxCell id="odD_A38JLa6p7S2N9CNn-33" value="" style="endArrow=none;html=1;rounded=0;exitX=0.5;exitY=1;exitDx=0;exitDy=0;entryX=0;entryY=0.5;entryDx=0;entryDy=0;" edge="1" parent="1" source="odD_A38JLa6p7S2N9CNn-26" target="odD_A38JLa6p7S2N9CNn-23">
          <mxGeometry width="50" height="50" relative="1" as="geometry">
            <mxPoint x="425" y="335" as="sourcePoint" />
            <mxPoint x="445" y="475" as="targetPoint" />
            <Array as="points" />
          </mxGeometry>
        </mxCell>
        <mxCell id="odD_A38JLa6p7S2N9CNn-43" value="" style="endArrow=none;html=1;rounded=0;entryX=0.033;entryY=0.225;entryDx=0;entryDy=0;exitX=0;exitY=0.5;exitDx=0;exitDy=0;entryPerimeter=0;" edge="1" parent="1" source="odD_A38JLa6p7S2N9CNn-23" target="odD_A38JLa6p7S2N9CNn-29">
          <mxGeometry width="50" height="50" relative="1" as="geometry">
            <mxPoint x="805" y="375" as="sourcePoint" />
            <mxPoint x="964" y="436" as="targetPoint" />
            <Array as="points" />
          </mxGeometry>
        </mxCell>
        <mxCell id="odD_A38JLa6p7S2N9CNn-40" value="" style="endArrow=none;html=1;rounded=0;entryX=0;entryY=0;entryDx=0;entryDy=0;exitX=0;exitY=0.5;exitDx=0;exitDy=0;" edge="1" parent="1" source="odD_A38JLa6p7S2N9CNn-23" target="odD_A38JLa6p7S2N9CNn-39">
          <mxGeometry width="50" height="50" relative="1" as="geometry">
            <mxPoint x="875" y="435" as="sourcePoint" />
            <mxPoint x="1065" y="515" as="targetPoint" />
            <Array as="points" />
          </mxGeometry>
        </mxCell>
        <mxCell id="odD_A38JLa6p7S2N9CNn-37" value="" style="endArrow=none;html=1;rounded=0;exitX=1;exitY=0.5;exitDx=0;exitDy=0;entryX=0;entryY=0.5;entryDx=0;entryDy=0;" edge="1" parent="1" source="odD_A38JLa6p7S2N9CNn-27" target="odD_A38JLa6p7S2N9CNn-23">
          <mxGeometry width="50" height="50" relative="1" as="geometry">
            <mxPoint x="418.02" y="402.98" as="sourcePoint" />
            <mxPoint x="545" y="485" as="targetPoint" />
            <Array as="points" />
          </mxGeometry>
        </mxCell>
        <mxCell id="odD_A38JLa6p7S2N9CNn-10" value="" style="endArrow=none;html=1;rounded=0;entryX=1;entryY=0;entryDx=0;entryDy=0;exitX=0;exitY=0.5;exitDx=0;exitDy=0;" edge="1" parent="1" source="HhwE2IefwVXbn9e1Ju-8-1" target="HhwE2IefwVXbn9e1Ju-8-9">
          <mxGeometry width="50" height="50" relative="1" as="geometry">
            <mxPoint x="290" y="465" as="sourcePoint" />
            <mxPoint x="120" y="575" as="targetPoint" />
            <Array as="points" />
          </mxGeometry>
        </mxCell>
        <mxCell id="HhwE2IefwVXbn9e1Ju-8-1" value="USER&amp;nbsp;" style="rounded=0;whiteSpace=wrap;html=1;fillColor=#f8cecc;strokeColor=#b85450;" parent="1" vertex="1">
          <mxGeometry x="325" y="410" width="120" height="60" as="geometry" />
        </mxCell>
        <mxCell id="HhwE2IefwVXbn9e1Ju-8-2" value="user_id" style="ellipse;whiteSpace=wrap;html=1;fillColor=#dae8fc;strokeColor=#6c8ebf;" parent="1" vertex="1">
          <mxGeometry x="40" y="310" width="60" height="40" as="geometry" />
        </mxCell>
        <mxCell id="HhwE2IefwVXbn9e1Ju-8-3" value="email" style="ellipse;whiteSpace=wrap;html=1;fillColor=#dae8fc;strokeColor=#6c8ebf;" parent="1" vertex="1">
          <mxGeometry x="40" y="360" width="60" height="40" as="geometry" />
        </mxCell>
        <mxCell id="HhwE2IefwVXbn9e1Ju-8-6" value="first_name" style="ellipse;whiteSpace=wrap;html=1;fillColor=#dae8fc;strokeColor=#6c8ebf;" parent="1" vertex="1">
          <mxGeometry x="110" y="285" width="60" height="40" as="geometry" />
        </mxCell>
        <mxCell id="HhwE2IefwVXbn9e1Ju-8-7" value="password" style="ellipse;whiteSpace=wrap;html=1;fillColor=#dae8fc;strokeColor=#6c8ebf;" parent="1" vertex="1">
          <mxGeometry x="40" y="405" width="60" height="40" as="geometry" />
        </mxCell>
        <mxCell id="HhwE2IefwVXbn9e1Ju-8-8" value="phone&lt;div&gt;number&lt;/div&gt;" style="ellipse;whiteSpace=wrap;html=1;fillColor=#dae8fc;strokeColor=#6c8ebf;" parent="1" vertex="1">
          <mxGeometry x="30" y="455" width="60" height="50" as="geometry" />
        </mxCell>
        <mxCell id="HhwE2IefwVXbn9e1Ju-8-9" value="Role" style="ellipse;whiteSpace=wrap;html=1;fillColor=#dae8fc;strokeColor=#6c8ebf;" parent="1" vertex="1">
          <mxGeometry x="40" y="510" width="60" height="40" as="geometry" />
        </mxCell>
        <mxCell id="HhwE2IefwVXbn9e1Ju-8-10" value="created_at" style="ellipse;whiteSpace=wrap;html=1;fillColor=#dae8fc;strokeColor=#6c8ebf;" parent="1" vertex="1">
          <mxGeometry x="110" y="505" width="70" height="40" as="geometry" />
        </mxCell>
        <mxCell id="odD_A38JLa6p7S2N9CNn-1" value="last_name" style="ellipse;whiteSpace=wrap;html=1;fillColor=#dae8fc;strokeColor=#6c8ebf;" vertex="1" parent="1">
          <mxGeometry x="155" y="250" width="60" height="40" as="geometry" />
        </mxCell>
        <mxCell id="odD_A38JLa6p7S2N9CNn-3" value="" style="endArrow=none;html=1;rounded=0;exitX=1;exitY=1;exitDx=0;exitDy=0;entryX=0;entryY=0.5;entryDx=0;entryDy=0;" edge="1" parent="1" source="odD_A38JLa6p7S2N9CNn-1" target="HhwE2IefwVXbn9e1Ju-8-1">
          <mxGeometry width="50" height="50" relative="1" as="geometry">
            <mxPoint x="210" y="310" as="sourcePoint" />
            <mxPoint x="456.98" y="407.02" as="targetPoint" />
            <Array as="points" />
          </mxGeometry>
        </mxCell>
        <mxCell id="odD_A38JLa6p7S2N9CNn-4" value="" style="endArrow=none;html=1;rounded=0;exitX=1;exitY=1;exitDx=0;exitDy=0;entryX=0;entryY=0.5;entryDx=0;entryDy=0;" edge="1" parent="1" source="HhwE2IefwVXbn9e1Ju-8-2" target="HhwE2IefwVXbn9e1Ju-8-1">
          <mxGeometry width="50" height="50" relative="1" as="geometry">
            <mxPoint x="110.98000000000002" y="363" as="sourcePoint" />
            <mxPoint x="250" y="455" as="targetPoint" />
            <Array as="points" />
          </mxGeometry>
        </mxCell>
        <mxCell id="odD_A38JLa6p7S2N9CNn-5" value="" style="endArrow=none;html=1;rounded=0;exitX=0.5;exitY=1;exitDx=0;exitDy=0;entryX=0;entryY=0.5;entryDx=0;entryDy=0;" edge="1" parent="1" source="HhwE2IefwVXbn9e1Ju-8-6" target="HhwE2IefwVXbn9e1Ju-8-1">
          <mxGeometry width="50" height="50" relative="1" as="geometry">
            <mxPoint x="240" y="325" as="sourcePoint" />
            <mxPoint x="260" y="465" as="targetPoint" />
            <Array as="points" />
          </mxGeometry>
        </mxCell>
        <mxCell id="odD_A38JLa6p7S2N9CNn-6" value="" style="endArrow=none;html=1;rounded=0;exitX=1;exitY=0.5;exitDx=0;exitDy=0;entryX=0;entryY=0.5;entryDx=0;entryDy=0;" edge="1" parent="1" source="HhwE2IefwVXbn9e1Ju-8-3" target="HhwE2IefwVXbn9e1Ju-8-1">
          <mxGeometry width="50" height="50" relative="1" as="geometry">
            <mxPoint x="120" y="395" as="sourcePoint" />
            <mxPoint x="240" y="445" as="targetPoint" />
            <Array as="points" />
          </mxGeometry>
        </mxCell>
        <mxCell id="odD_A38JLa6p7S2N9CNn-7" value="" style="endArrow=none;html=1;rounded=0;exitX=0.95;exitY=0.28;exitDx=0;exitDy=0;entryX=0;entryY=0.5;entryDx=0;entryDy=0;exitPerimeter=0;" edge="1" parent="1" source="HhwE2IefwVXbn9e1Ju-8-8" target="HhwE2IefwVXbn9e1Ju-8-1">
          <mxGeometry width="50" height="50" relative="1" as="geometry">
            <mxPoint x="120" y="495" as="sourcePoint" />
            <mxPoint x="340" y="455" as="targetPoint" />
            <Array as="points" />
          </mxGeometry>
        </mxCell>
        <mxCell id="odD_A38JLa6p7S2N9CNn-8" value="" style="endArrow=none;html=1;rounded=0;exitX=0.5;exitY=0;exitDx=0;exitDy=0;entryX=0;entryY=0.5;entryDx=0;entryDy=0;" edge="1" parent="1" source="HhwE2IefwVXbn9e1Ju-8-10" target="HhwE2IefwVXbn9e1Ju-8-1">
          <mxGeometry width="50" height="50" relative="1" as="geometry">
            <mxPoint x="150" y="545" as="sourcePoint" />
            <mxPoint x="276.98" y="627.02" as="targetPoint" />
            <Array as="points" />
          </mxGeometry>
        </mxCell>
        <mxCell id="odD_A38JLa6p7S2N9CNn-9" value="" style="endArrow=none;html=1;rounded=0;exitX=1;exitY=0.5;exitDx=0;exitDy=0;entryX=0;entryY=0.5;entryDx=0;entryDy=0;" edge="1" parent="1" source="HhwE2IefwVXbn9e1Ju-8-7" target="HhwE2IefwVXbn9e1Ju-8-1">
          <mxGeometry width="50" height="50" relative="1" as="geometry">
            <mxPoint x="120" y="445" as="sourcePoint" />
            <mxPoint x="360" y="475" as="targetPoint" />
            <Array as="points" />
          </mxGeometry>
        </mxCell>
        <mxCell id="odD_A38JLa6p7S2N9CNn-23" value="Property" style="rounded=0;whiteSpace=wrap;html=1;fillColor=#f8cecc;strokeColor=#b85450;direction=west;" vertex="1" parent="1">
          <mxGeometry x="895" y="520" width="120" height="60" as="geometry" />
        </mxCell>
        <mxCell id="odD_A38JLa6p7S2N9CNn-24" value="location" style="ellipse;whiteSpace=wrap;html=1;fillColor=#dae8fc;strokeColor=#6c8ebf;" vertex="1" parent="1">
          <mxGeometry x="1505" y="340" width="60" height="40" as="geometry" />
        </mxCell>
        <mxCell id="odD_A38JLa6p7S2N9CNn-25" value="price&lt;div&gt;per&lt;/div&gt;&lt;div&gt;night&lt;/div&gt;" style="ellipse;whiteSpace=wrap;html=1;fillColor=#dae8fc;strokeColor=#6c8ebf;" vertex="1" parent="1">
          <mxGeometry x="1535" y="285" width="80" height="55" as="geometry" />
        </mxCell>
        <mxCell id="odD_A38JLa6p7S2N9CNn-26" value="&lt;font style=&quot;font-size: 9px;&quot;&gt;Property_id&amp;nbsp;&lt;/font&gt;" style="ellipse;whiteSpace=wrap;html=1;fillColor=#dae8fc;strokeColor=#6c8ebf;" vertex="1" parent="1">
          <mxGeometry x="1015" y="310" width="60" height="40" as="geometry" />
        </mxCell>
        <mxCell id="odD_A38JLa6p7S2N9CNn-27" value="description" style="ellipse;whiteSpace=wrap;html=1;fillColor=#dae8fc;strokeColor=#6c8ebf;" vertex="1" parent="1">
          <mxGeometry x="1295" y="310" width="60" height="40" as="geometry" />
        </mxCell>
        <mxCell id="odD_A38JLa6p7S2N9CNn-28" value="host_id" style="ellipse;whiteSpace=wrap;html=1;fillColor=#dae8fc;strokeColor=#6c8ebf;" vertex="1" parent="1">
          <mxGeometry x="1095" y="310" width="80" height="40" as="geometry" />
        </mxCell>
        <mxCell id="odD_A38JLa6p7S2N9CNn-29" value="created_at&amp;nbsp;" style="ellipse;whiteSpace=wrap;html=1;fillColor=#dae8fc;strokeColor=#6c8ebf;fontSize=9;" vertex="1" parent="1">
          <mxGeometry x="1545" y="410" width="60" height="40" as="geometry" />
        </mxCell>
        <mxCell id="odD_A38JLa6p7S2N9CNn-30" value="name" style="ellipse;whiteSpace=wrap;html=1;fillColor=#dae8fc;strokeColor=#6c8ebf;" vertex="1" parent="1">
          <mxGeometry x="1195" y="300" width="70" height="40" as="geometry" />
        </mxCell>
        <mxCell id="odD_A38JLa6p7S2N9CNn-32" value="" style="endArrow=none;html=1;rounded=0;exitX=0;exitY=0.5;exitDx=0;exitDy=0;entryX=0;entryY=0.5;entryDx=0;entryDy=0;" edge="1" parent="1" source="odD_A38JLa6p7S2N9CNn-24" target="odD_A38JLa6p7S2N9CNn-23">
          <mxGeometry width="50" height="50" relative="1" as="geometry">
            <mxPoint x="368.02" y="352.98" as="sourcePoint" />
            <mxPoint x="435" y="465" as="targetPoint" />
            <Array as="points" />
          </mxGeometry>
        </mxCell>
        <mxCell id="odD_A38JLa6p7S2N9CNn-34" value="" style="endArrow=none;html=1;rounded=0;exitX=0;exitY=0.5;exitDx=0;exitDy=0;entryX=0;entryY=0.5;entryDx=0;entryDy=0;" edge="1" parent="1" source="odD_A38JLa6p7S2N9CNn-25" target="odD_A38JLa6p7S2N9CNn-23">
          <mxGeometry width="50" height="50" relative="1" as="geometry">
            <mxPoint x="315" y="363.99" as="sourcePoint" />
            <mxPoint x="425" y="455" as="targetPoint" />
            <Array as="points" />
          </mxGeometry>
        </mxCell>
        <mxCell id="odD_A38JLa6p7S2N9CNn-39" value="updated_at&amp;nbsp;" style="ellipse;whiteSpace=wrap;html=1;fillColor=#dae8fc;strokeColor=#6c8ebf;fontSize=9;" vertex="1" parent="1">
          <mxGeometry x="1295" y="445" width="60" height="40" as="geometry" />
        </mxCell>
        <mxCell id="odD_A38JLa6p7S2N9CNn-44" value="" style="endArrow=none;html=1;rounded=0;entryX=1;entryY=0;entryDx=0;entryDy=0;exitX=0;exitY=0.5;exitDx=0;exitDy=0;" edge="1" parent="1" source="odD_A38JLa6p7S2N9CNn-45" target="odD_A38JLa6p7S2N9CNn-51">
          <mxGeometry width="50" height="50" relative="1" as="geometry">
            <mxPoint x="280" y="845" as="sourcePoint" />
            <mxPoint x="110" y="955" as="targetPoint" />
            <Array as="points" />
          </mxGeometry>
        </mxCell>
        <mxCell id="odD_A38JLa6p7S2N9CNn-45" value="Booking" style="rounded=0;whiteSpace=wrap;html=1;fillColor=#f8cecc;strokeColor=#b85450;" vertex="1" parent="1">
          <mxGeometry x="330" y="760" width="120" height="60" as="geometry" />
        </mxCell>
        <mxCell id="odD_A38JLa6p7S2N9CNn-46" value="user_id" style="ellipse;whiteSpace=wrap;html=1;fillColor=#dae8fc;strokeColor=#6c8ebf;" vertex="1" parent="1">
          <mxGeometry x="30" y="690" width="60" height="40" as="geometry" />
        </mxCell>
        <mxCell id="odD_A38JLa6p7S2N9CNn-47" value="email" style="ellipse;whiteSpace=wrap;html=1;fillColor=#dae8fc;strokeColor=#6c8ebf;" vertex="1" parent="1">
          <mxGeometry x="30" y="740" width="60" height="40" as="geometry" />
        </mxCell>
        <mxCell id="odD_A38JLa6p7S2N9CNn-48" value="first_name" style="ellipse;whiteSpace=wrap;html=1;fillColor=#dae8fc;strokeColor=#6c8ebf;" vertex="1" parent="1">
          <mxGeometry x="100" y="665" width="60" height="40" as="geometry" />
        </mxCell>
        <mxCell id="odD_A38JLa6p7S2N9CNn-49" value="password" style="ellipse;whiteSpace=wrap;html=1;fillColor=#dae8fc;strokeColor=#6c8ebf;" vertex="1" parent="1">
          <mxGeometry x="30" y="785" width="60" height="40" as="geometry" />
        </mxCell>
        <mxCell id="odD_A38JLa6p7S2N9CNn-50" value="phone&lt;div&gt;number&lt;/div&gt;" style="ellipse;whiteSpace=wrap;html=1;fillColor=#dae8fc;strokeColor=#6c8ebf;" vertex="1" parent="1">
          <mxGeometry x="20" y="835" width="60" height="50" as="geometry" />
        </mxCell>
        <mxCell id="odD_A38JLa6p7S2N9CNn-51" value="Role" style="ellipse;whiteSpace=wrap;html=1;fillColor=#dae8fc;strokeColor=#6c8ebf;" vertex="1" parent="1">
          <mxGeometry x="30" y="890" width="60" height="40" as="geometry" />
        </mxCell>
        <mxCell id="odD_A38JLa6p7S2N9CNn-52" value="created_at" style="ellipse;whiteSpace=wrap;html=1;fillColor=#dae8fc;strokeColor=#6c8ebf;" vertex="1" parent="1">
          <mxGeometry x="100" y="885" width="70" height="40" as="geometry" />
        </mxCell>
        <mxCell id="odD_A38JLa6p7S2N9CNn-53" value="last_name" style="ellipse;whiteSpace=wrap;html=1;fillColor=#dae8fc;strokeColor=#6c8ebf;" vertex="1" parent="1">
          <mxGeometry x="170" y="650" width="60" height="40" as="geometry" />
        </mxCell>
        <mxCell id="odD_A38JLa6p7S2N9CNn-54" value="" style="endArrow=none;html=1;rounded=0;exitX=0.5;exitY=1;exitDx=0;exitDy=0;entryX=0;entryY=0.5;entryDx=0;entryDy=0;" edge="1" parent="1" source="odD_A38JLa6p7S2N9CNn-53" target="odD_A38JLa6p7S2N9CNn-45">
          <mxGeometry width="50" height="50" relative="1" as="geometry">
            <mxPoint x="200" y="695" as="sourcePoint" />
            <mxPoint x="446.98" y="787.02" as="targetPoint" />
            <Array as="points" />
          </mxGeometry>
        </mxCell>
        <mxCell id="odD_A38JLa6p7S2N9CNn-55" value="" style="endArrow=none;html=1;rounded=0;exitX=1;exitY=1;exitDx=0;exitDy=0;entryX=0;entryY=0.5;entryDx=0;entryDy=0;" edge="1" parent="1" source="odD_A38JLa6p7S2N9CNn-46" target="odD_A38JLa6p7S2N9CNn-45">
          <mxGeometry width="50" height="50" relative="1" as="geometry">
            <mxPoint x="100.98000000000002" y="743" as="sourcePoint" />
            <mxPoint x="240" y="835" as="targetPoint" />
            <Array as="points" />
          </mxGeometry>
        </mxCell>
        <mxCell id="odD_A38JLa6p7S2N9CNn-56" value="" style="endArrow=none;html=1;rounded=0;exitX=0.5;exitY=1;exitDx=0;exitDy=0;entryX=0;entryY=0.5;entryDx=0;entryDy=0;" edge="1" parent="1" source="odD_A38JLa6p7S2N9CNn-48" target="odD_A38JLa6p7S2N9CNn-45">
          <mxGeometry width="50" height="50" relative="1" as="geometry">
            <mxPoint x="230" y="705" as="sourcePoint" />
            <mxPoint x="250" y="845" as="targetPoint" />
            <Array as="points" />
          </mxGeometry>
        </mxCell>
        <mxCell id="odD_A38JLa6p7S2N9CNn-57" value="" style="endArrow=none;html=1;rounded=0;exitX=1;exitY=0.5;exitDx=0;exitDy=0;entryX=0;entryY=0.5;entryDx=0;entryDy=0;" edge="1" parent="1" source="odD_A38JLa6p7S2N9CNn-47" target="odD_A38JLa6p7S2N9CNn-45">
          <mxGeometry width="50" height="50" relative="1" as="geometry">
            <mxPoint x="110" y="775" as="sourcePoint" />
            <mxPoint x="230" y="825" as="targetPoint" />
            <Array as="points" />
          </mxGeometry>
        </mxCell>
        <mxCell id="odD_A38JLa6p7S2N9CNn-58" value="" style="endArrow=none;html=1;rounded=0;exitX=0.95;exitY=0.28;exitDx=0;exitDy=0;entryX=0;entryY=0.5;entryDx=0;entryDy=0;exitPerimeter=0;" edge="1" parent="1" source="odD_A38JLa6p7S2N9CNn-50" target="odD_A38JLa6p7S2N9CNn-45">
          <mxGeometry width="50" height="50" relative="1" as="geometry">
            <mxPoint x="110" y="875" as="sourcePoint" />
            <mxPoint x="330" y="835" as="targetPoint" />
            <Array as="points" />
          </mxGeometry>
        </mxCell>
        <mxCell id="odD_A38JLa6p7S2N9CNn-59" value="" style="endArrow=none;html=1;rounded=0;exitX=0.5;exitY=0;exitDx=0;exitDy=0;entryX=0;entryY=0.5;entryDx=0;entryDy=0;" edge="1" parent="1" source="odD_A38JLa6p7S2N9CNn-52" target="odD_A38JLa6p7S2N9CNn-45">
          <mxGeometry width="50" height="50" relative="1" as="geometry">
            <mxPoint x="140" y="925" as="sourcePoint" />
            <mxPoint x="266.98" y="1007.02" as="targetPoint" />
            <Array as="points" />
          </mxGeometry>
        </mxCell>
        <mxCell id="odD_A38JLa6p7S2N9CNn-60" value="" style="endArrow=none;html=1;rounded=0;exitX=1;exitY=0.5;exitDx=0;exitDy=0;entryX=0;entryY=0.5;entryDx=0;entryDy=0;" edge="1" parent="1" source="odD_A38JLa6p7S2N9CNn-49" target="odD_A38JLa6p7S2N9CNn-45">
          <mxGeometry width="50" height="50" relative="1" as="geometry">
            <mxPoint x="110" y="825" as="sourcePoint" />
            <mxPoint x="350" y="855" as="targetPoint" />
            <Array as="points" />
          </mxGeometry>
        </mxCell>
        <mxCell id="odD_A38JLa6p7S2N9CNn-63" value="" style="endArrow=none;html=1;rounded=0;exitX=0.028;exitY=0.675;exitDx=0;exitDy=0;entryX=0;entryY=0.5;entryDx=0;entryDy=0;exitPerimeter=0;" edge="1" parent="1" source="odD_A38JLa6p7S2N9CNn-68" target="odD_A38JLa6p7S2N9CNn-64">
          <mxGeometry width="50" height="50" relative="1" as="geometry">
            <mxPoint x="778.02" y="772.98" as="sourcePoint" />
            <mxPoint x="905" y="855" as="targetPoint" />
            <Array as="points" />
          </mxGeometry>
        </mxCell>
        <mxCell id="odD_A38JLa6p7S2N9CNn-64" value="payment" style="rounded=0;whiteSpace=wrap;html=1;fillColor=#f8cecc;strokeColor=#b85450;direction=west;" vertex="1" parent="1">
          <mxGeometry x="1285" y="750" width="120" height="60" as="geometry" />
        </mxCell>
        <mxCell id="odD_A38JLa6p7S2N9CNn-65" value="payment&lt;div&gt;method&lt;/div&gt;" style="ellipse;whiteSpace=wrap;html=1;fillColor=#dae8fc;strokeColor=#6c8ebf;" vertex="1" parent="1">
          <mxGeometry x="1615" y="637.5" width="60" height="52.5" as="geometry" />
        </mxCell>
        <mxCell id="odD_A38JLa6p7S2N9CNn-67" value="booking_id" style="ellipse;whiteSpace=wrap;html=1;fillColor=#dae8fc;strokeColor=#6c8ebf;fontSize=9;" vertex="1" parent="1">
          <mxGeometry x="1565" y="690" width="60" height="40" as="geometry" />
        </mxCell>
        <mxCell id="odD_A38JLa6p7S2N9CNn-68" value="amount" style="ellipse;whiteSpace=wrap;html=1;fillColor=#dae8fc;strokeColor=#6c8ebf;" vertex="1" parent="1">
          <mxGeometry x="1555" y="550" width="60" height="40" as="geometry" />
        </mxCell>
        <mxCell id="odD_A38JLa6p7S2N9CNn-69" value="payment_date" style="ellipse;whiteSpace=wrap;html=1;fillColor=#dae8fc;strokeColor=#6c8ebf;fontSize=10;" vertex="1" parent="1">
          <mxGeometry x="1595" y="590" width="80" height="40" as="geometry" />
        </mxCell>
        <mxCell id="odD_A38JLa6p7S2N9CNn-71" value="payment_id" style="ellipse;whiteSpace=wrap;html=1;fillColor=#dae8fc;strokeColor=#6c8ebf;" vertex="1" parent="1">
          <mxGeometry x="1530" y="780" width="70" height="40" as="geometry" />
        </mxCell>
        <mxCell id="odD_A38JLa6p7S2N9CNn-72" value="" style="endArrow=none;html=1;rounded=0;exitX=0;exitY=0.5;exitDx=0;exitDy=0;entryX=0;entryY=0.5;entryDx=0;entryDy=0;" edge="1" parent="1" source="odD_A38JLa6p7S2N9CNn-65" target="odD_A38JLa6p7S2N9CNn-64">
          <mxGeometry width="50" height="50" relative="1" as="geometry">
            <mxPoint x="728.02" y="722.98" as="sourcePoint" />
            <mxPoint x="795" y="835" as="targetPoint" />
            <Array as="points" />
          </mxGeometry>
        </mxCell>
        <mxCell id="odD_A38JLa6p7S2N9CNn-73" value="" style="endArrow=none;html=1;rounded=0;exitX=0;exitY=0.5;exitDx=0;exitDy=0;entryX=0;entryY=0.5;entryDx=0;entryDy=0;" edge="1" parent="1" source="odD_A38JLa6p7S2N9CNn-67" target="odD_A38JLa6p7S2N9CNn-64">
          <mxGeometry width="50" height="50" relative="1" as="geometry">
            <mxPoint x="785" y="705" as="sourcePoint" />
            <mxPoint x="805" y="845" as="targetPoint" />
            <Array as="points" />
          </mxGeometry>
        </mxCell>
        <mxCell id="odD_A38JLa6p7S2N9CNn-75" value="" style="endArrow=none;html=1;rounded=0;exitX=-0.01;exitY=0.654;exitDx=0;exitDy=0;entryX=0;entryY=0.5;entryDx=0;entryDy=0;exitPerimeter=0;" edge="1" parent="1" source="odD_A38JLa6p7S2N9CNn-69" target="odD_A38JLa6p7S2N9CNn-64">
          <mxGeometry width="50" height="50" relative="1" as="geometry">
            <mxPoint x="758.02" y="752.98" as="sourcePoint" />
            <mxPoint x="885" y="835" as="targetPoint" />
            <Array as="points" />
          </mxGeometry>
        </mxCell>
        <mxCell id="odD_A38JLa6p7S2N9CNn-76" value="" style="endArrow=none;html=1;rounded=0;exitX=0.012;exitY=0.383;exitDx=0;exitDy=0;entryX=0;entryY=0.5;entryDx=0;entryDy=0;exitPerimeter=0;" edge="1" parent="1" source="odD_A38JLa6p7S2N9CNn-71" target="odD_A38JLa6p7S2N9CNn-64">
          <mxGeometry width="50" height="50" relative="1" as="geometry">
            <mxPoint x="695" y="925" as="sourcePoint" />
            <mxPoint x="821.98" y="1007.02" as="targetPoint" />
            <Array as="points" />
          </mxGeometry>
        </mxCell>
        <mxCell id="odD_A38JLa6p7S2N9CNn-79" value="" style="endArrow=none;html=1;rounded=0;entryX=1;entryY=0;entryDx=0;entryDy=0;exitX=0;exitY=0.5;exitDx=0;exitDy=0;" edge="1" parent="1" source="odD_A38JLa6p7S2N9CNn-80" target="odD_A38JLa6p7S2N9CNn-86">
          <mxGeometry width="50" height="50" relative="1" as="geometry">
            <mxPoint x="635" y="975" as="sourcePoint" />
            <mxPoint x="465" y="1085" as="targetPoint" />
            <Array as="points" />
          </mxGeometry>
        </mxCell>
        <mxCell id="odD_A38JLa6p7S2N9CNn-80" value="Review" style="rounded=0;whiteSpace=wrap;html=1;fillColor=#f8cecc;strokeColor=#b85450;direction=east;" vertex="1" parent="1">
          <mxGeometry x="595" y="1010" width="120" height="60" as="geometry" />
        </mxCell>
        <mxCell id="odD_A38JLa6p7S2N9CNn-82" value="created_at&amp;nbsp;" style="ellipse;whiteSpace=wrap;html=1;fillColor=#dae8fc;strokeColor=#6c8ebf;direction=east;" vertex="1" parent="1">
          <mxGeometry x="360" y="1255" width="60" height="40" as="geometry" />
        </mxCell>
        <mxCell id="odD_A38JLa6p7S2N9CNn-84" value="rating" style="ellipse;whiteSpace=wrap;html=1;fillColor=#dae8fc;strokeColor=#6c8ebf;direction=east;" vertex="1" parent="1">
          <mxGeometry x="195" y="1215" width="60" height="40" as="geometry" />
        </mxCell>
        <mxCell id="odD_A38JLa6p7S2N9CNn-85" value="property_id&amp;nbsp;" style="ellipse;whiteSpace=wrap;html=1;fillColor=#dae8fc;strokeColor=#6c8ebf;direction=east;" vertex="1" parent="1">
          <mxGeometry x="75" y="1100" width="70" height="60" as="geometry" />
        </mxCell>
        <mxCell id="odD_A38JLa6p7S2N9CNn-86" value="user_id" style="ellipse;whiteSpace=wrap;html=1;fillColor=#dae8fc;strokeColor=#6c8ebf;direction=east;" vertex="1" parent="1">
          <mxGeometry x="115" y="1190" width="60" height="40" as="geometry" />
        </mxCell>
        <mxCell id="odD_A38JLa6p7S2N9CNn-87" value="comment" style="ellipse;whiteSpace=wrap;html=1;fillColor=#dae8fc;strokeColor=#6c8ebf;direction=east;" vertex="1" parent="1">
          <mxGeometry x="275" y="1250" width="70" height="40" as="geometry" />
        </mxCell>
        <mxCell id="odD_A38JLa6p7S2N9CNn-88" value="review_id" style="ellipse;whiteSpace=wrap;html=1;fillColor=#dae8fc;strokeColor=#6c8ebf;direction=east;" vertex="1" parent="1">
          <mxGeometry x="45" y="1020" width="60" height="40" as="geometry" />
        </mxCell>
        <mxCell id="odD_A38JLa6p7S2N9CNn-89" value="" style="endArrow=none;html=1;rounded=0;exitX=1;exitY=0.5;exitDx=0;exitDy=0;entryX=0;entryY=0.5;entryDx=0;entryDy=0;" edge="1" parent="1" source="odD_A38JLa6p7S2N9CNn-88" target="odD_A38JLa6p7S2N9CNn-80">
          <mxGeometry width="50" height="50" relative="1" as="geometry">
            <mxPoint x="555" y="825" as="sourcePoint" />
            <mxPoint x="801.98" y="917.02" as="targetPoint" />
            <Array as="points" />
          </mxGeometry>
        </mxCell>
        <mxCell id="odD_A38JLa6p7S2N9CNn-92" value="" style="endArrow=none;html=1;rounded=0;exitX=0.5;exitY=0;exitDx=0;exitDy=0;entryX=0;entryY=0.5;entryDx=0;entryDy=0;" edge="1" parent="1" source="odD_A38JLa6p7S2N9CNn-82" target="odD_A38JLa6p7S2N9CNn-80">
          <mxGeometry width="50" height="50" relative="1" as="geometry">
            <mxPoint x="465" y="905" as="sourcePoint" />
            <mxPoint x="585" y="955" as="targetPoint" />
            <Array as="points" />
          </mxGeometry>
        </mxCell>
        <mxCell id="odD_A38JLa6p7S2N9CNn-93" value="" style="endArrow=none;html=1;rounded=0;exitX=0.95;exitY=0.28;exitDx=0;exitDy=0;entryX=0;entryY=0.5;entryDx=0;entryDy=0;exitPerimeter=0;" edge="1" parent="1" source="odD_A38JLa6p7S2N9CNn-85" target="odD_A38JLa6p7S2N9CNn-80">
          <mxGeometry width="50" height="50" relative="1" as="geometry">
            <mxPoint x="465" y="1005" as="sourcePoint" />
            <mxPoint x="685" y="965" as="targetPoint" />
            <Array as="points" />
          </mxGeometry>
        </mxCell>
        <mxCell id="odD_A38JLa6p7S2N9CNn-94" value="" style="endArrow=none;html=1;rounded=0;exitX=0.5;exitY=0;exitDx=0;exitDy=0;entryX=0;entryY=0.5;entryDx=0;entryDy=0;" edge="1" parent="1" source="odD_A38JLa6p7S2N9CNn-87" target="odD_A38JLa6p7S2N9CNn-80">
          <mxGeometry width="50" height="50" relative="1" as="geometry">
            <mxPoint x="495" y="1055" as="sourcePoint" />
            <mxPoint x="621.98" y="1137.02" as="targetPoint" />
            <Array as="points" />
          </mxGeometry>
        </mxCell>
        <mxCell id="odD_A38JLa6p7S2N9CNn-95" value="" style="endArrow=none;html=1;rounded=0;exitX=1;exitY=0.5;exitDx=0;exitDy=0;entryX=0;entryY=0.5;entryDx=0;entryDy=0;" edge="1" parent="1" source="odD_A38JLa6p7S2N9CNn-84" target="odD_A38JLa6p7S2N9CNn-80">
          <mxGeometry width="50" height="50" relative="1" as="geometry">
            <mxPoint x="465" y="955" as="sourcePoint" />
            <mxPoint x="705" y="985" as="targetPoint" />
            <Array as="points" />
          </mxGeometry>
        </mxCell>
        <mxCell id="odD_A38JLa6p7S2N9CNn-99" value="" style="endArrow=none;html=1;rounded=0;exitX=0.028;exitY=0.675;exitDx=0;exitDy=0;entryX=0;entryY=0.5;entryDx=0;entryDy=0;exitPerimeter=0;" edge="1" parent="1" source="odD_A38JLa6p7S2N9CNn-104" target="odD_A38JLa6p7S2N9CNn-100">
          <mxGeometry width="50" height="50" relative="1" as="geometry">
            <mxPoint x="28.019999999999982" y="292.98" as="sourcePoint" />
            <mxPoint x="155" y="375" as="targetPoint" />
            <Array as="points" />
          </mxGeometry>
        </mxCell>
        <mxCell id="odD_A38JLa6p7S2N9CNn-100" value="message" style="rounded=0;whiteSpace=wrap;html=1;fillColor=#f8cecc;strokeColor=#b85450;direction=west;" vertex="1" parent="1">
          <mxGeometry x="410" y="160" width="120" height="60" as="geometry" />
        </mxCell>
        <mxCell id="odD_A38JLa6p7S2N9CNn-101" value="sent&lt;div&gt;-at&lt;/div&gt;" style="ellipse;whiteSpace=wrap;html=1;fillColor=#dae8fc;strokeColor=#6c8ebf;" vertex="1" parent="1">
          <mxGeometry x="790" y="230" width="60" height="40" as="geometry" />
        </mxCell>
        <mxCell id="odD_A38JLa6p7S2N9CNn-103" value="sender_id" style="ellipse;whiteSpace=wrap;html=1;fillColor=#dae8fc;strokeColor=#6c8ebf;" vertex="1" parent="1">
          <mxGeometry x="550" y="130" width="60" height="40" as="geometry" />
        </mxCell>
        <mxCell id="odD_A38JLa6p7S2N9CNn-104" value="recipient _id" style="ellipse;whiteSpace=wrap;html=1;fillColor=#dae8fc;strokeColor=#6c8ebf;" vertex="1" parent="1">
          <mxGeometry x="675" y="140" width="60" height="40" as="geometry" />
        </mxCell>
        <mxCell id="odD_A38JLa6p7S2N9CNn-105" value="message&lt;div&gt;body&amp;nbsp;&lt;/div&gt;" style="ellipse;whiteSpace=wrap;html=1;fillColor=#dae8fc;strokeColor=#6c8ebf;" vertex="1" parent="1">
          <mxGeometry x="725" y="190" width="80" height="40" as="geometry" />
        </mxCell>
        <mxCell id="odD_A38JLa6p7S2N9CNn-107" value="message_id" style="ellipse;whiteSpace=wrap;html=1;fillColor=#dae8fc;strokeColor=#6c8ebf;" vertex="1" parent="1">
          <mxGeometry x="780" y="140" width="70" height="40" as="geometry" />
        </mxCell>
        <mxCell id="odD_A38JLa6p7S2N9CNn-108" value="" style="endArrow=none;html=1;rounded=0;exitX=0;exitY=0.5;exitDx=0;exitDy=0;entryX=0;entryY=0.5;entryDx=0;entryDy=0;" edge="1" parent="1" source="odD_A38JLa6p7S2N9CNn-101" target="odD_A38JLa6p7S2N9CNn-100">
          <mxGeometry width="50" height="50" relative="1" as="geometry">
            <mxPoint x="-21.980000000000018" y="242.98000000000002" as="sourcePoint" />
            <mxPoint x="45" y="355" as="targetPoint" />
            <Array as="points" />
          </mxGeometry>
        </mxCell>
        <mxCell id="odD_A38JLa6p7S2N9CNn-109" value="" style="endArrow=none;html=1;rounded=0;exitX=0;exitY=1;exitDx=0;exitDy=0;entryX=0;entryY=0.5;entryDx=0;entryDy=0;" edge="1" parent="1" source="odD_A38JLa6p7S2N9CNn-103" target="odD_A38JLa6p7S2N9CNn-100">
          <mxGeometry width="50" height="50" relative="1" as="geometry">
            <mxPoint x="35" y="225" as="sourcePoint" />
            <mxPoint x="55" y="365" as="targetPoint" />
            <Array as="points" />
          </mxGeometry>
        </mxCell>
        <mxCell id="odD_A38JLa6p7S2N9CNn-111" value="" style="endArrow=none;html=1;rounded=0;exitX=0;exitY=0.5;exitDx=0;exitDy=0;entryX=0;entryY=0.5;entryDx=0;entryDy=0;" edge="1" parent="1" source="odD_A38JLa6p7S2N9CNn-105" target="odD_A38JLa6p7S2N9CNn-100">
          <mxGeometry width="50" height="50" relative="1" as="geometry">
            <mxPoint x="8.019999999999982" y="272.98" as="sourcePoint" />
            <mxPoint x="135" y="355" as="targetPoint" />
            <Array as="points" />
          </mxGeometry>
        </mxCell>
        <mxCell id="odD_A38JLa6p7S2N9CNn-112" value="" style="endArrow=none;html=1;rounded=0;exitX=0;exitY=0.5;exitDx=0;exitDy=0;entryX=0;entryY=0.5;entryDx=0;entryDy=0;" edge="1" parent="1" source="odD_A38JLa6p7S2N9CNn-107" target="odD_A38JLa6p7S2N9CNn-100">
          <mxGeometry width="50" height="50" relative="1" as="geometry">
            <mxPoint x="-55" y="445" as="sourcePoint" />
            <mxPoint x="71.98000000000002" y="527.02" as="targetPoint" />
            <Array as="points" />
          </mxGeometry>
        </mxCell>
        <mxCell id="odD_A38JLa6p7S2N9CNn-120" value="OWNS" style="rhombus;whiteSpace=wrap;html=1;" vertex="1" parent="1">
          <mxGeometry x="645" y="320" width="80" height="80" as="geometry" />
        </mxCell>
        <mxCell id="odD_A38JLa6p7S2N9CNn-121" value="" style="endArrow=classic;html=1;rounded=0;exitX=0.5;exitY=0;exitDx=0;exitDy=0;entryX=0;entryY=0.5;entryDx=0;entryDy=0;" edge="1" parent="1" source="HhwE2IefwVXbn9e1Ju-8-1" target="odD_A38JLa6p7S2N9CNn-120">
          <mxGeometry width="50" height="50" relative="1" as="geometry">
            <mxPoint x="825" y="520" as="sourcePoint" />
            <mxPoint x="875" y="470" as="targetPoint" />
            <Array as="points">
              <mxPoint x="385" y="360" />
            </Array>
          </mxGeometry>
        </mxCell>
        <mxCell id="odD_A38JLa6p7S2N9CNn-123" value="HOST" style="edgeLabel;html=1;align=center;verticalAlign=middle;resizable=0;points=[];" vertex="1" connectable="0" parent="odD_A38JLa6p7S2N9CNn-121">
          <mxGeometry x="0.153" y="13" relative="1" as="geometry">
            <mxPoint as="offset" />
          </mxGeometry>
        </mxCell>
        <mxCell id="odD_A38JLa6p7S2N9CNn-122" value="" style="endArrow=classic;html=1;rounded=0;exitX=1;exitY=0.5;exitDx=0;exitDy=0;entryX=0.5;entryY=1;entryDx=0;entryDy=0;" edge="1" parent="1" source="odD_A38JLa6p7S2N9CNn-120" target="odD_A38JLa6p7S2N9CNn-23">
          <mxGeometry width="50" height="50" relative="1" as="geometry">
            <mxPoint x="745" y="385" as="sourcePoint" />
            <mxPoint x="1005" y="335" as="targetPoint" />
            <Array as="points">
              <mxPoint x="955" y="360" />
            </Array>
          </mxGeometry>
        </mxCell>
        <mxCell id="odD_A38JLa6p7S2N9CNn-124" value="BOOKS" style="rhombus;whiteSpace=wrap;html=1;" vertex="1" parent="1">
          <mxGeometry x="330" y="590" width="80" height="80" as="geometry" />
        </mxCell>
        <mxCell id="odD_A38JLa6p7S2N9CNn-125" value="" style="endArrow=classic;html=1;rounded=0;exitX=0.358;exitY=1.045;exitDx=0;exitDy=0;exitPerimeter=0;" edge="1" parent="1" source="HhwE2IefwVXbn9e1Ju-8-1" target="odD_A38JLa6p7S2N9CNn-124">
          <mxGeometry width="50" height="50" relative="1" as="geometry">
            <mxPoint x="825" y="660" as="sourcePoint" />
            <mxPoint x="875" y="610" as="targetPoint" />
          </mxGeometry>
        </mxCell>
        <mxCell id="odD_A38JLa6p7S2N9CNn-130" value="GUEST" style="edgeLabel;html=1;align=center;verticalAlign=middle;resizable=0;points=[];" vertex="1" connectable="0" parent="odD_A38JLa6p7S2N9CNn-125">
          <mxGeometry x="0.0187" y="-1" relative="1" as="geometry">
            <mxPoint as="offset" />
          </mxGeometry>
        </mxCell>
        <mxCell id="odD_A38JLa6p7S2N9CNn-126" value="" style="endArrow=classic;html=1;rounded=0;exitX=0.5;exitY=1;exitDx=0;exitDy=0;entryX=0.352;entryY=0.021;entryDx=0;entryDy=0;entryPerimeter=0;" edge="1" parent="1" source="odD_A38JLa6p7S2N9CNn-124" target="odD_A38JLa6p7S2N9CNn-45">
          <mxGeometry width="50" height="50" relative="1" as="geometry">
            <mxPoint x="370" y="680" as="sourcePoint" />
            <mxPoint x="370.29" y="763" as="targetPoint" />
          </mxGeometry>
        </mxCell>
        <mxCell id="odD_A38JLa6p7S2N9CNn-127" value="BOOKED" style="rhombus;whiteSpace=wrap;html=1;" vertex="1" parent="1">
          <mxGeometry x="915" y="740" width="80" height="80" as="geometry" />
        </mxCell>
        <mxCell id="odD_A38JLa6p7S2N9CNn-128" value="" style="endArrow=none;html=1;rounded=0;entryX=0.5;entryY=0;entryDx=0;entryDy=0;exitX=0.5;exitY=0;exitDx=0;exitDy=0;exitPerimeter=0;" edge="1" parent="1" source="odD_A38JLa6p7S2N9CNn-127" target="odD_A38JLa6p7S2N9CNn-23">
          <mxGeometry width="50" height="50" relative="1" as="geometry">
            <mxPoint x="955" y="730" as="sourcePoint" />
            <mxPoint x="875" y="610" as="targetPoint" />
          </mxGeometry>
        </mxCell>
        <mxCell id="odD_A38JLa6p7S2N9CNn-134" value="PROPERTY&amp;nbsp;&lt;div&gt;BOOKED IN BOOKING&lt;/div&gt;" style="edgeLabel;html=1;align=center;verticalAlign=middle;resizable=0;points=[];" vertex="1" connectable="0" parent="odD_A38JLa6p7S2N9CNn-128">
          <mxGeometry x="0.0911" y="-3" relative="1" as="geometry">
            <mxPoint as="offset" />
          </mxGeometry>
        </mxCell>
        <mxCell id="odD_A38JLa6p7S2N9CNn-129" value="" style="endArrow=classic;html=1;rounded=0;entryX=1;entryY=0.5;entryDx=0;entryDy=0;exitX=0;exitY=0.5;exitDx=0;exitDy=0;" edge="1" parent="1" source="odD_A38JLa6p7S2N9CNn-127" target="odD_A38JLa6p7S2N9CNn-45">
          <mxGeometry width="50" height="50" relative="1" as="geometry">
            <mxPoint x="825" y="660" as="sourcePoint" />
            <mxPoint x="875" y="610" as="targetPoint" />
          </mxGeometry>
        </mxCell>
        <mxCell id="odD_A38JLa6p7S2N9CNn-131" value="" style="endArrow=classic;html=1;rounded=0;exitX=0.68;exitY=1.021;exitDx=0;exitDy=0;exitPerimeter=0;entryX=0;entryY=0.5;entryDx=0;entryDy=0;" edge="1" parent="1" source="HhwE2IefwVXbn9e1Ju-8-1" target="odD_A38JLa6p7S2N9CNn-135">
          <mxGeometry width="50" height="50" relative="1" as="geometry">
            <mxPoint x="825" y="660" as="sourcePoint" />
            <mxPoint x="875" y="610" as="targetPoint" />
          </mxGeometry>
        </mxCell>
        <mxCell id="odD_A38JLa6p7S2N9CNn-139" value="writes" style="edgeLabel;html=1;align=center;verticalAlign=middle;resizable=0;points=[];" vertex="1" connectable="0" parent="odD_A38JLa6p7S2N9CNn-131">
          <mxGeometry x="-0.1286" y="-1" relative="1" as="geometry">
            <mxPoint as="offset" />
          </mxGeometry>
        </mxCell>
        <mxCell id="odD_A38JLa6p7S2N9CNn-132" value="" style="endArrow=classic;startArrow=classic;html=1;rounded=0;entryX=1;entryY=0.5;entryDx=0;entryDy=0;exitX=1;exitY=0.5;exitDx=0;exitDy=0;" edge="1" parent="1" source="odD_A38JLa6p7S2N9CNn-127" target="odD_A38JLa6p7S2N9CNn-64">
          <mxGeometry width="50" height="50" relative="1" as="geometry">
            <mxPoint x="1020" y="780" as="sourcePoint" />
            <mxPoint x="1070" y="730" as="targetPoint" />
          </mxGeometry>
        </mxCell>
        <mxCell id="odD_A38JLa6p7S2N9CNn-133" value="BOOKING&amp;nbsp;&lt;div&gt;HAS PAYMENT&lt;/div&gt;" style="edgeLabel;html=1;align=center;verticalAlign=middle;resizable=0;points=[];" vertex="1" connectable="0" parent="odD_A38JLa6p7S2N9CNn-132">
          <mxGeometry x="-0.0542" y="4" relative="1" as="geometry">
            <mxPoint x="-1" as="offset" />
          </mxGeometry>
        </mxCell>
        <mxCell id="odD_A38JLa6p7S2N9CNn-135" value="review" style="rhombus;whiteSpace=wrap;html=1;" vertex="1" parent="1">
          <mxGeometry x="595" y="610" width="80" height="80" as="geometry" />
        </mxCell>
        <mxCell id="odD_A38JLa6p7S2N9CNn-137" value="" style="endArrow=classic;html=1;rounded=0;entryX=1;entryY=0.5;entryDx=0;entryDy=0;exitX=1;exitY=0.25;exitDx=0;exitDy=0;" edge="1" parent="1" source="odD_A38JLa6p7S2N9CNn-23" target="odD_A38JLa6p7S2N9CNn-135">
          <mxGeometry width="50" height="50" relative="1" as="geometry">
            <mxPoint x="825" y="810" as="sourcePoint" />
            <mxPoint x="875" y="760" as="targetPoint" />
          </mxGeometry>
        </mxCell>
        <mxCell id="odD_A38JLa6p7S2N9CNn-138" value="has" style="edgeLabel;html=1;align=center;verticalAlign=middle;resizable=0;points=[];" vertex="1" connectable="0" parent="odD_A38JLa6p7S2N9CNn-137">
          <mxGeometry x="-0.0679" y="-1" relative="1" as="geometry">
            <mxPoint as="offset" />
          </mxGeometry>
        </mxCell>
        <mxCell id="odD_A38JLa6p7S2N9CNn-141" value="send/&lt;div&gt;receive&lt;/div&gt;" style="rhombus;whiteSpace=wrap;html=1;fillColor=#60a917;strokeColor=#2D7600;fontColor=#ffffff;" vertex="1" parent="1">
          <mxGeometry x="230" y="160" width="80" height="80" as="geometry" />
        </mxCell>
        <mxCell id="odD_A38JLa6p7S2N9CNn-144" value="" style="endArrow=classic;startArrow=classic;html=1;rounded=0;entryX=0.5;entryY=1;entryDx=0;entryDy=0;exitX=0.5;exitY=0;exitDx=0;exitDy=0;" edge="1" parent="1" source="HhwE2IefwVXbn9e1Ju-8-1" target="odD_A38JLa6p7S2N9CNn-141">
          <mxGeometry width="50" height="50" relative="1" as="geometry">
            <mxPoint x="385" y="410" as="sourcePoint" />
            <mxPoint x="450" y="460" as="targetPoint" />
            <Array as="points">
              <mxPoint x="385" y="240" />
            </Array>
          </mxGeometry>
        </mxCell>
        <mxCell id="odD_A38JLa6p7S2N9CNn-148" value="Text" style="edgeLabel;html=1;align=center;verticalAlign=middle;resizable=0;points=[];" vertex="1" connectable="0" parent="odD_A38JLa6p7S2N9CNn-144">
          <mxGeometry x="-0.0767" y="-1" relative="1" as="geometry">
            <mxPoint as="offset" />
          </mxGeometry>
        </mxCell>
        <mxCell id="odD_A38JLa6p7S2N9CNn-145" value="" style="endArrow=classic;startArrow=classic;html=1;rounded=0;entryX=1;entryY=0.5;entryDx=0;entryDy=0;exitX=1;exitY=0.5;exitDx=0;exitDy=0;" edge="1" parent="1" source="odD_A38JLa6p7S2N9CNn-141" target="odD_A38JLa6p7S2N9CNn-100">
          <mxGeometry width="50" height="50" relative="1" as="geometry">
            <mxPoint x="400" y="510" as="sourcePoint" />
            <mxPoint x="450" y="460" as="targetPoint" />
          </mxGeometry>
        </mxCell>
      </root>
    </mxGraphModel>
  </diagram>
</mxfile>
